#!OML:ASF X:\für Bonn\!DataBase\2005_08_10_Bjorn_Final\c3d\bjorn.ASF
:FULLY-SPECIFIED
:DEGREES
251
root 4.0101 18.5397 -0.782406 632.668 94.0532 633.185
lowerback -1.58426 -1.87631 1.89086
upperback 13.7992 -1.96411 -0.749868
thorax 16.1012 -0.327794 -2.1095
lowerneck 4.39816 6.33261 8.18942
upperneck -3.08269 8.71357 -6.20354
head -1.08113 4.3924 -3.60494
rclavicle 1.96797e-014 2.38542e-015
rhumerus -27.2036 -25.8431 -79.1886
rradius 33.2745
rwrist 8.48455
rhand -8.81509 16.8011
rfingers 7.12502
rthumb 17.1244 -12.4642
lclavicle 1.96797e-014 2.38542e-015
lhumerus -7.22774 -5.054 77.6736
lradius 22.6571
lwrist -26.5254
lhand -11.5218 -7.57255
lfingers 7.12502
lthumb 14.5178 21.8995
rfemur -30.9509 -5.16947 9.24541
rtibia 42.4952
rfoot -6.35247 13.9931
rtoes -13.7307
lfemur 18.3168 -1.40313 -15.7681
ltibia 22.2677
lfoot -7.68431 -5.97671
ltoes -30.0158
252
root 4.11862 18.5531 -0.723442 633.622 94.0833 634.113
lowerback -1.58421 -1.88596 2.14269
upperback 13.8014 -2.01312 -0.663953
thorax 16.0966 -0.325803 -2.15987
lowerneck 4.38781 6.57261 7.83149
upperneck -3.15923 9.00856 -6.27391
head -1.09298 4.54508 -3.56438
rclavicle 1.61016e-014 -3.26007e-014
rhumerus -27.1698 -25.8765 -79.0986
rradius 33.2887
rwrist 8.46563
rhand -8.66843 16.6032
rfingers 7.12502
rthumb 17.2656 -12.6498
lclavicle 1.61016e-014 -3.26007e-014
lhumerus -7.59799 -5.62789 77.8495
lradius 21.638
lwrist -27.3468
lhand -10.9076 -7.57782
lfingers 7.12502
lthumb 15.1095 21.8507
rfemur -30.6731 -5.00524 9.36637
rtibia 42.6856
rfoot -6.90074 13.921
rtoes -13.6355
lfemur 17.9117 -1.59337 -15.6189
ltibia 23.2925
lfoot -6.70022 -5.90191
ltoes -29.8113
253
root 4.22545 18.5669 -0.66626 634.438 94.0885 634.892
lowerback -1.58148 -1.88889 2.43507
upperback 13.7758 -2.06099 -0.565184
thorax 16.0541 -0.32147 -2.21776
lowerneck 4.47991 6.7901 7.45966
upperneck -3.24158 9.2782 -6.36668
head -1.12742 4.68701 -3.535
rclavicle -1.64991e-014 -1.39149e-014
rhumerus -27.2028 -25.9361 -78.9362
rradius 33.3405
rwrist 8.51109
rhand -8.46488 16.3719
rfingers 7.12502
rthumb 17.4615 -12.8638
lclavicle -1.64991e-014 -1.39149e-014
lhumerus -8.11232 -6.16053 78.1017
lradius 20.7852
lwrist -28.1328
lhand -10.2364 -7.5225
lfingers 7.12502
lthumb 15.756 21.8562
rfemur -30.3986 -4.82423 9.51447
rtibia 42.8383
rfoot -7.42987 13.8432
rtoes -13.599
lfemur 17.4121 -1.79187 -15.4637
ltibia 24.442
lfoot -5.66147 -5.76058
ltoes -29.3473
254
root 4.33208 18.581 -0.608699 634.912 94.0937 635.354
lowerback -1.56909 -1.90173 2.70615
upperback 13.7784 -2.11618 -0.474066
thorax 16.0415 -0.320544 -2.2734
lowerneck 4.47696 7.02647 7.03068
upperneck -3.29586 9.56651 -6.37741
head -1.1419 4.83657 -3.46205
rclavicle -1.98785e-015 -1.51076e-014
rhumerus -27.1753 -25.9522 -78.8283
rradius 33.3803
rwrist 8.51937
rhand -8.27235 16.1937
rfingers 7.12502
rthumb 17.6468 -13.0255
lclavicle -1.98785e-015 -1.51076e-014
lhumerus -8.66883 -6.77895 78.3648
lradius 20.1082
lwrist -28.7048
lhand -9.5244 -7.28347
lfingers 7.12502
lthumb 16.4416 22.0398
rfemur -30.0871 -4.65557 9.66756
rtibia 42.9663
rfoot -7.94019 13.7675
rtoes -13.6177
lfemur 16.8772 -1.93335 -15.2975
ltibia 25.7159
lfoot -4.59751 -5.63637
ltoes -28.9955
